<?xml version="1.0" encoding="UTF-8"?>
<svg width="107px" height="32px" viewBox="0 0 107 32" version="1.1" xmlns="http://www.w3.org/2000/svg" xmlns:xlink="http://www.w3.org/1999/xlink">
    <title>1EAD06A3-00CD-4F2B-8290-5F30E00956DD</title>
    <defs>
        <polygon id="path-1" points="0.548410811 0.67027027 10.7079784 0.67027027 10.7079784 27.596627 0.548410811 27.596627"></polygon>
        <polygon id="path-3" points="0.337643243 0.664302703 10.2296216 0.664302703 10.2296216 20.7153297 0.337643243 20.7153297"></polygon>
        <polygon id="path-5" points="0.864864865 0.432432432 1.2972973 0.432432432 1.2972973 0.864864865 0.864864865 0.864864865"></polygon>
        <polygon id="path-7" points="0.864864865 30.4648649 106.229622 30.4648649 106.229622 0.864864865 0.864864865 0.864864865"></polygon>
    </defs>
    <g id="final" stroke="none" stroke-width="1" fill="none" fill-rule="evenodd">
        <g id="Landing-page-2" transform="translate(-88.000000, -17.000000)">
            <g id="Group-37" transform="translate(88.000000, 17.000000)">
                <path d="M53.2347676,7.77807568 C49.5677405,7.77807568 48.3465514,10.4133189 48.3465514,13.6980757 L48.3465514,21.2595892 C48.3465514,25.1938595 49.3004973,27.8291027 53.0816865,27.8291027 C57.0540108,27.8291027 57.9327135,25.0035892 57.9327135,21.6418595 L57.9327135,21.3746162 L55.2213622,21.3746162 L55.2213622,21.9860757 C55.2213622,24.4682378 54.6860108,25.5000216 53.1577946,25.5000216 C51.4393081,25.5000216 51.0959568,23.6665081 51.0959568,21.8710486 L51.0959568,13.5449946 C51.0959568,11.2531027 51.7065514,10.1080216 53.1958486,10.1080216 C54.9152,10.1080216 55.2213622,11.635373 55.2213622,13.3919135 L55.2213622,14.0794811 L57.9327135,14.0794811 L57.9327135,13.2777514 C57.9327135,10.6805622 57.2451459,7.77807568 53.2347676,7.77807568" id="Fill-1" fill="#FFFFFF"></path>
                <path d="M67.6528432,21.2599351 C67.6528432,24.2774486 66.6980324,25.3853405 64.902573,25.3853405 C63.1840865,25.3853405 62.1531676,24.2774486 62.1531676,21.3749622 L62.1531676,8.15982703 C62.1531676,5.3715027 63.0310054,4.14944865 64.8645189,4.14944865 C66.7360865,4.14944865 67.6528432,5.44761081 67.6528432,8.15982703 L67.6528432,21.2599351 Z M70.4411676,21.145773 L70.4411676,8.27398919 C70.4411676,4.26447568 68.7218162,1.66728649 64.940627,1.66728649 C61.3514378,1.66728649 59.3648432,3.95831351 59.3648432,8.27398919 L59.3648432,21.183827 C59.3648432,25.3472865 60.8160865,27.8675027 64.7884108,27.8675027 C65.5520865,27.8675027 66.2007351,27.7913946 66.8121946,27.6002595 L70.4022486,30.4646919 L72.0835459,28.5550703 L69.0660324,26.1490162 C69.9827892,25.0411243 70.4411676,23.3606919 70.4411676,21.145773 L70.4411676,21.145773 Z" id="Fill-3" fill="#FFFFFF"></path>
                <path d="M82.6435459,8.08345946 L79.8932757,8.08345946 L79.8932757,20.8402162 C79.8932757,24.5444324 78.8243027,25.347027 77.4491676,25.347027 C76.0359784,25.347027 75.3864649,24.4683243 75.3864649,22.1383784 L75.3864649,8.08345946 L72.6751135,8.08345946 L72.6751135,22.864 C72.6751135,27.2185946 74.8900324,27.8291892 76.4563027,27.8291892 C78.1367351,27.8291892 79.3587892,27.2566486 79.9693838,25.5001081 C79.9693838,26.1868108 80.0083027,27.1805405 80.0844108,27.5238919 L82.6816,27.5238919 C82.6435459,26.6071351 82.6435459,24.7736216 82.6435459,22.2534054 L82.6435459,8.08345946 Z" id="Fill-5" fill="#FFFFFF"></path>
                <g id="Group-9" transform="translate(83.891892, 0.194595)">
                    <mask id="mask-2" fill="white">
                        <use xlink:href="#path-1"></use>
                    </mask>
                    <g id="Clip-8"></g>
                    <path d="M7.99662703,21.1801946 C7.99662703,23.8915459 7.19403243,25.1144649 5.74365405,25.1144649 C3.98538378,25.1144649 3.25976216,23.7393297 3.25976216,20.7979243 L3.25976216,14.8398703 C3.25976216,12.166573 3.64203243,10.0658162 5.85695135,10.0658162 C7.46127568,10.0658162 7.99662703,11.4028973 7.99662703,13.6178162 L7.99662703,21.1801946 Z M6.77370811,7.58365405 C4.94105946,7.58365405 3.83403243,8.46149189 3.29868108,9.68441081 L3.29868108,0.669924324 L0.58732973,0.669924324 L0.58732973,22.1730595 C0.58732973,24.5030054 0.58732973,26.2214919 0.548410811,27.3293838 L2.99338378,27.3293838 C3.06949189,26.7559784 3.10754595,26.2595459 3.10754595,25.4578162 C3.56592432,26.6798703 4.51987027,27.596627 6.35424865,27.596627 C9.90624865,27.596627 10.7079784,24.6941405 10.7079784,20.7218162 L10.7079784,13.1974919 C10.7079784,9.87468108 9.5628973,7.58365405 6.77370811,7.58365405 L6.77370811,7.58365405 Z" id="Fill-7" fill="#FFFFFF" mask="url(#mask-2)"></path>
                </g>
                <g id="Group-12" transform="translate(96.000000, 7.113514)">
                    <mask id="mask-4" fill="white">
                        <use xlink:href="#path-3"></use>
                    </mask>
                    <g id="Clip-11"></g>
                    <path d="M3.04899459,6.62235676 C3.04899459,4.5216 3.50737297,2.99424865 5.34088649,2.99424865 C7.28856216,2.99424865 7.59472432,4.78884324 7.59472432,6.5843027 L7.59472432,9.02841081 L3.04899459,9.02841081 L3.04899459,6.62235676 Z M10.2299676,11.2441946 L10.2299676,6.85154595 C10.2299676,3.45262703 9.12121081,0.664302703 5.37894054,0.664302703 C1.36856216,0.664302703 0.337643243,3.91100541 0.337643243,6.85154595 L0.337643243,14.108627 C0.337643243,18.0428973 1.2544,20.7153297 5.34088649,20.7153297 C9.65742703,20.7153297 10.1538595,17.2403027 10.1538595,14.9864649 L10.1538595,14.8723027 L7.51775135,14.8723027 L7.51775135,15.0245189 C7.51775135,16.8580324 7.1744,18.3862486 5.30196757,18.3862486 C3.39321081,18.3862486 3.01094054,16.3616 3.01094054,14.4139243 L3.01094054,11.2441946 L10.2299676,11.2441946 Z" id="Fill-10" fill="#FFFFFF" mask="url(#mask-4)"></path>
                </g>
                <path d="M35.2196324,22.0348541 L33.2589838,20.9027459 L35.2447135,17.4649081 C35.4730378,17.0696649 35.6157405,16.6415568 35.6823351,16.2039351 L29.6663351,16.2039351 C29.6179027,16.3890162 29.5461189,16.569773 29.4475243,16.7392865 L25.5798486,23.4402595 C25.4812541,23.6106378 25.3610378,23.7637189 25.2243892,23.897773 L28.2323892,29.1077189 C28.5774703,28.831827 28.8775784,28.4936649 29.1059027,28.0975568 L31.0466595,24.7366919 L33.0055784,25.8679351 C33.6706595,26.2519351 34.5208216,26.0244757 34.9056865,25.3593946 L35.728173,23.9332324 C36.1113081,23.2690162 35.8847135,22.4188541 35.2196324,22.0348541" id="Fill-13" fill="#FFFFFF"></path>
                <path d="M23.9898811,20.5196973 L26.6623135,15.8918054 C26.7436108,15.7516973 26.7436108,15.5787243 26.6623135,15.4386162 L23.9898811,10.8098595 C23.8160432,10.5088865 23.3810162,10.5080216 23.2063135,10.8081297 L20.5079351,15.4368865 C20.425773,15.5778595 20.425773,15.7516973 20.5079351,15.8935351 L23.2063135,20.5205622 C23.3810162,20.8224 23.8160432,20.8206703 23.9898811,20.5196973" id="Fill-15" fill="#FFFFFF"></path>
                <path d="M13.6283676,16.7979243 L16.2982054,21.4214919 C16.3795027,21.5616 16.5291243,21.6480865 16.6908541,21.6480865 L22.0244757,21.6480865 C22.3738811,21.6480865 22.591827,21.2684108 22.4162595,20.966573 L19.7204757,16.3430054 C19.6391784,16.2037622 19.4895568,16.1181405 19.3295568,16.1181405 L14.0218811,16.1181405 C13.6724757,16.1181405 13.4545297,16.4960865 13.6283676,16.7979243" id="Fill-17" fill="#FFFFFF"></path>
                <g id="Group-21" transform="translate(0.000000, 29.600000)">
                    <mask id="mask-6" fill="white">
                        <use xlink:href="#path-5"></use>
                    </mask>
                    <g id="Clip-20"></g>
                    <path d="" id="Fill-19" fill="#FFFFFF" mask="url(#mask-6)"></path>
                </g>
                <path d="M14.0219676,15.2117622 L19.3296432,15.2117622 C19.4896432,15.2117622 19.6392649,15.1261405 19.7205622,14.9868973 L22.4163459,10.3633297 C22.5919135,10.060627 22.3739676,9.68095135 22.0245622,9.68095135 L16.6909405,9.68095135 C16.5283459,9.68095135 16.3795892,9.7683027 16.2982919,9.90841081 L13.6284541,14.5311135 C13.4546162,14.8338162 13.6725622,15.2117622 14.0219676,15.2117622" id="Fill-22" fill="#FFFFFF"></path>
                <path d="M15.9797622,6.81401081 L23.7177081,6.81401081 C24.4857081,6.81401081 25.1948973,7.22395676 25.5797622,7.88903784 L29.4474378,14.5900108 C29.5468973,14.7603892 29.6186811,14.9402811 29.6662486,15.1253622 L35.6822486,15.1253622 C35.6156541,14.6886054 35.4729514,14.2596324 35.244627,13.8643892 L29.1058162,3.23174054 C28.4632216,2.11779459 27.2740324,1.43109189 25.9871135,1.43109189 L13.7094919,1.43109189 C13.2537081,1.43109189 12.8108973,1.5219027 12.3983568,1.68276757 L15.4072216,6.89271351 C15.5914378,6.84168649 15.7834378,6.81401081 15.9797622,6.81401081" id="Fill-24" fill="#FFFFFF"></path>
                <path d="M23.7178811,24.5154595 L15.9799351,24.5154595 C15.2119351,24.5154595 14.5018811,24.1055135 14.1178811,23.4404324 L10.2493405,16.7394595 C10.1507459,16.5690811 10.0780973,16.3891892 10.0305297,16.2041081 L4.01539459,16.2041081 C4.08112432,16.6417297 4.22469189,17.0698378 4.45301622,17.4650811 L10.5909622,28.0977297 C11.2344216,29.2116757 12.4227459,29.8983784 13.7096649,29.8983784 L25.9872865,29.8983784 C26.4439351,29.8983784 26.8867459,29.8084324 27.2992865,29.6467027 L24.2904216,24.4367568 C24.1062054,24.4877838 23.9142054,24.5154595 23.7178811,24.5154595" id="Fill-26" fill="#FFFFFF"></path>
                <path d="M10.2491676,14.5897514 L14.118573,7.88877838 C14.2163027,7.71926486 14.3365189,7.56618378 14.4731676,7.43212973 L11.4643027,2.22218378 C11.1200865,2.49807568 10.8199784,2.83623784 10.5916541,3.23148108 L4.45284324,13.8649946 C4.22451892,14.2602378 4.08095135,14.6883459 4.01522162,15.1259676 L10.0303568,15.1259676 C10.0787892,14.9408865 10.1514378,14.7601297 10.2491676,14.5897514" id="Fill-28" fill="#FFFFFF"></path>
                <mask id="mask-8" fill="white">
                    <use xlink:href="#path-7"></use>
                </mask>
                <g id="Clip-31"></g>
                <polygon id="Fill-30" fill="#FFFFFF" mask="url(#mask-8)" points="3.49751351 15.8304865 12.0051892 15.8304865 12.0051892 15.5001081 3.49751351 15.5001081"></polygon>
                <polygon id="Fill-32" fill="#FFFFFF" mask="url(#mask-8)" points="35.7907027 15.8296216 42.7355676 15.8296216 42.7355676 15.4992432 35.7907027 15.4992432"></polygon>
                <polygon id="Fill-33" fill="#FFFFFF" mask="url(#mask-8)" points="33.9943784 15.8304865 35.4317838 15.8304865 35.4317838 15.5001081 33.9943784 15.5001081"></polygon>
                <polygon id="Fill-34" fill="#FFFFFF" mask="url(#mask-8)" points="30.8272432 15.8304865 31.5459459 15.8304865 31.5459459 15.5001081 30.8272432 15.5001081"></polygon>
                <polygon id="Fill-35" fill="#FFFFFF" mask="url(#mask-8)" points="1.94248649 15.8296216 3.37989189 15.8296216 3.37989189 15.4992432 1.94248649 15.4992432"></polygon>
                <polygon id="Fill-36" fill="#FFFFFF" mask="url(#mask-8)" points="0.864864865 15.8296216 1.58356757 15.8296216 1.58356757 15.4992432 0.864864865 15.4992432"></polygon>
            </g>
        </g>
    </g>
</svg>