<?xml version="1.0" encoding="UTF-8"?>
<svg width="1441px" height="900px" viewBox="0 0 1441 900" version="1.1" xmlns="http://www.w3.org/2000/svg" xmlns:xlink="http://www.w3.org/1999/xlink">
    <title>9A157069-4B10-4F5D-B6C6-EE719509BE69</title>
    <defs>
        <linearGradient x1="0.410321236%" y1="29.4752271%" x2="100%" y2="69.53125%" id="linearGradient-1">
            <stop stop-color="#5421FF" offset="0%"></stop>
            <stop stop-color="#3D92FF" offset="53.3189467%"></stop>
            <stop stop-color="#00DCF8" offset="100%"></stop>
        </linearGradient>
        <rect id="path-2" x="0.5" y="0" width="1440" height="900"></rect>
        <polygon id="path-4" points="0.360739836 0.931823047 295.496505 0.931823047 295.496505 174.512917 0.360739836 174.512917"></polygon>
        <polygon id="path-6" points="0.412333673 0.716247941 295.537137 0.716247941 295.537137 174.296245 0.412333673 174.296245"></polygon>
        <polygon id="path-8" points="3.22244281 361.840253 533.955963 361.840253 533.955963 1.00548114 3.22244281 1.00548114"></polygon>
        <polygon id="path-10" points="1.91057402 1.93867069 5.16042296 1.93867069 5.16042296 5.18851964 1.91057402 5.18851964"></polygon>
        <polygon id="path-12" points="1.91057402 1.93867069 5.16042296 1.93867069 5.16042296 5.18851964 1.91057402 5.18851964"></polygon>
        <polygon id="path-14" points="1.91057402 1.93867069 5.16042296 1.93867069 5.16042296 5.18851964 1.91057402 5.18851964"></polygon>
        <polygon id="path-16" points="0.213881269 0.55247432 175.198748 0.55247432 175.198748 103.468041 0.213881269 103.468041"></polygon>
        <polygon id="path-18" points="0.244471057 0.424660665 175.222838 0.424660665 175.222838 103.339577 0.244471057 103.339577"></polygon>
        <polygon id="path-20" points="1.91057402 214.533702 316.580448 214.533702 316.580448 0.596145921 1.91057402 0.596145921"></polygon>
    </defs>
    <g id="final" stroke="none" stroke-width="1" fill="none" fill-rule="evenodd">
        <g id="Group">
            <rect id="Rectangle" fill="url(#linearGradient-1)" x="0.5" y="0" width="1440" height="900"></rect>
            <g id="Group-35-Copy">
                <mask id="mask-3" fill="white">
                    <use xlink:href="#path-2"></use>
                </mask>
                <use id="Mask" fill="url(#linearGradient-1)" xlink:href="#path-2"></use>
                <g opacity="0.0699172247" mask="url(#mask-3)">
                    <g transform="translate(-111.000000, 619.200000)">
                        <path d="M358.928899,334.923722 C362.502714,331.974776 365.6161,328.433848 368.005952,324.300939 L384.526626,295.68849 L410.628634,310.751136 C419.047929,315.618541 429.835152,312.735371 434.691594,304.305113 L445.128012,286.238708 C449.995417,277.80845 447.112247,267.032191 438.681989,262.164786 L412.590944,247.10214 L435.130099,208.042311 C436.3031,206.014225 437.267811,203.898439 438.046157,201.738802 L370.812383,201.738802 L329.461365,273.37955 C328.650131,274.771804 327.674458,276.01058 326.643971,277.194543 L358.928899,334.923722 Z" id="Fill-1" stroke="none" fill="#FFFFFF" fill-rule="evenodd"></path>
                        <path d="M252.204465,184.321385 L286.407852,242.982386 C288.622302,246.797379 294.136502,246.775454 296.339989,242.960461 L330.214498,184.29946 C331.244984,182.512552 331.244984,180.33099 330.214498,178.555045 L296.339989,119.894043 C294.136502,116.068087 288.622302,116.057125 286.407852,119.872118 L252.204465,178.533119 C251.163015,180.320027 251.163015,182.523514 252.204465,184.321385" id="Fill-3" stroke="none" fill="#FFFFFF" fill-rule="evenodd"></path>
                        <path d="M237.268986,187.169475 L169.980399,187.169475 C165.562462,187.169475 162.79988,191.960141 165.01433,195.786097 L198.844988,254.392285 C199.875475,256.168231 201.772009,257.275456 203.82202,257.275456 L271.428522,257.275456 C275.868385,257.275456 278.620004,252.462864 276.394591,248.625945 L242.224092,190.019757 C241.193605,188.254774 239.318996,187.169475 237.268986,187.169475" id="Fill-11" stroke="none" fill="#FFFFFF" fill-rule="evenodd"></path>
                        <path d="M242.226284,172.829266 L276.396784,114.223078 C278.622196,110.397122 275.859615,105.58453 271.430715,105.58453 L203.824212,105.58453 C201.774201,105.58453 199.877667,106.680792 198.847181,108.456737 L165.016523,167.062926 C162.802073,170.888882 165.564654,175.679548 169.982592,175.679548 L237.271178,175.679548 C239.310226,175.679548 241.195798,174.594248 242.226284,172.829266" id="Fill-16" stroke="none" fill="#FFFFFF" fill-rule="evenodd"></path>
                        <g id="Group-20" stroke="none" stroke-width="1" fill="none" fill-rule="evenodd" transform="translate(149.053776, 0.073658)">
                            <mask id="mask-5" fill="white">
                                <use xlink:href="#path-4"></use>
                            </mask>
                            <g id="Clip-19"></g>
                            <path d="M45.7569662,69.1620991 L143.828601,69.1620991 C153.574374,69.1620991 162.563726,74.3583829 167.442093,82.7886408 L216.466948,167.727052 C217.72765,169.886689 218.637548,172.166915 219.240492,174.512917 L295.496505,174.512917 C294.652383,168.976791 292.84355,163.53933 289.938455,158.529411 L212.136712,23.7549101 C203.991482,9.63505031 188.917874,0.930726785 172.605489,0.930726785 L16.9800779,0.930726785 C11.2027751,0.930726785 5.58991152,2.08180231 0.360739836,4.12085039 L38.4887464,70.1596979 C40.8347479,69.512903 43.2684505,69.1620991 45.7569662,69.1620991" id="Fill-18" fill="#FFFFFF" mask="url(#mask-5)"></path>
                        </g>
                        <path d="M368.296461,188.255871 C367.682554,190.601872 366.772656,192.893061 365.522917,195.052698 L316.4871,279.991109 C315.237361,282.139783 313.713556,284.080168 311.992424,285.779374 L350.120431,351.818222 C354.494518,348.321145 358.298548,344.034759 361.192681,339.02484 L438.994424,204.239376 C441.899519,199.229457 443.708352,193.802958 444.552474,188.255871 L368.296461,188.255871 Z" id="Fill-21" stroke="none" fill="#FFFFFF" fill-rule="evenodd"></path>
                        <g id="Group-25" stroke="none" stroke-width="1" fill="none" fill-rule="evenodd" transform="translate(42.744756, 187.544008)">
                            <mask id="mask-7" fill="white">
                                <use xlink:href="#path-6"></use>
                            </mask>
                            <g id="Clip-24"></g>
                            <path d="M250.14091,106.067065 L152.069275,106.067065 C142.334465,106.067065 133.345113,100.870782 128.466746,92.4405236 L79.4309281,7.50211225 C78.1811889,5.3424753 77.2603285,3.0622495 76.6573842,0.716247941 L0.412333673,0.716247941 C1.2454931,6.26333573 3.0652887,11.6898346 5.95942146,16.6997539 L83.7721272,151.485217 C91.9173569,165.594114 106.980002,174.298438 123.292387,174.298438 L278.917798,174.298438 C284.706064,174.298438 290.318928,173.158325 295.537137,171.108314 L257.40913,105.069467 C255.074091,105.716261 252.640389,106.067065 250.14091,106.067065" id="Fill-23" fill="#FFFFFF" mask="url(#mask-7)"></path>
                        </g>
                        <path d="M119.399948,174.59096 C120.013855,172.244958 120.934715,169.95377 122.173492,167.794133 L171.220272,82.866684 C172.459048,80.707047 173.982853,78.7666625 175.714948,77.0674558 L137.586941,11.039571 C133.201892,14.5256854 129.408824,18.8230341 126.514691,23.8329533 L48.7019851,158.607454 C45.8078523,163.617373 43.9880567,169.054834 43.1548973,174.59096 L119.399948,174.59096 Z" id="Fill-26" stroke="none" fill="#FFFFFF" fill-rule="evenodd"></path>
                        <mask id="mask-9" fill="white">
                            <use xlink:href="#path-8"></use>
                        </mask>
                        <g id="Clip-29" stroke="none" fill="none"></g>
                        <polygon id="Fill-28" stroke="none" fill="#FFFFFF" fill-rule="evenodd" mask="url(#mask-9)" points="36.5926705 183.522209 144.432004 183.522209 144.432004 179.334487 36.5926705 179.334487"></polygon>
                        <polygon id="Fill-30" stroke="none" fill="#FFFFFF" fill-rule="evenodd" mask="url(#mask-9)" points="445.926091 183.522209 533.955963 183.522209 533.955963 179.334487 445.926091 179.334487"></polygon>
                        <polygon id="Fill-31" stroke="none" fill="#FFFFFF" fill-rule="evenodd" mask="url(#mask-9)" points="423.156721 183.522209 441.376602 183.522209 441.376602 179.334487 423.156721 179.334487"></polygon>
                        <polygon id="Fill-32" stroke="none" fill="#FFFFFF" fill-rule="evenodd" mask="url(#mask-9)" points="383.011592 183.522209 392.121532 183.522209 392.121532 179.334487 383.011592 179.334487"></polygon>
                    </g>
                </g>
            </g>
            <g id="Group-35" opacity="0.11390904" transform="translate(458.500000, 33.000000)">
                <path d="M212.807571,198.574994 C214.926473,196.826575 216.772387,194.727172 218.189321,192.276786 L227.984366,175.312575 L243.460146,184.24316 C248.451914,187.129026 254.847617,185.419605 257.726983,180.421337 L263.914696,169.709835 C266.800562,164.711568 265.091141,158.322365 260.092873,155.436499 L244.623592,146.505914 L257.986971,123.34749 C258.682439,122.145046 259.254412,120.890604 259.715891,119.610164 L219.853244,119.610164 L195.336383,162.08569 C194.855406,162.911151 194.276933,163.645617 193.665961,164.347585 L212.807571,198.574994 Z" id="Fill-1" fill="#FFFFFF"></path>
                <path d="M149.531062,109.283444 L169.81012,144.063327 C171.123059,146.325222 174.392407,146.312223 175.698846,144.050328 L195.782913,109.270445 C196.393884,108.210994 196.393884,106.917554 195.782913,105.864603 L175.698846,71.0847195 C174.392407,68.816325 171.123059,68.8098253 169.81012,71.0717201 L149.531062,105.851604 C148.913591,106.911054 148.913591,108.217494 149.531062,109.283444" id="Fill-3" fill="#FFFFFF"></path>
                <g id="Group-7" transform="translate(0.000000, 209.345182)">
                    <mask id="mask-11" fill="white">
                        <use xlink:href="#path-10"></use>
                    </mask>
                    <g id="Clip-6"></g>
                    <path d="" id="Fill-5" fill="#FFFFFF" mask="url(#mask-11)"></path>
                </g>
                <g id="Group-10" transform="translate(0.000000, 209.345182)">
                    <mask id="mask-13" fill="white">
                        <use xlink:href="#path-12"></use>
                    </mask>
                    <g id="Clip-9"></g>
                    <path d="" id="Fill-8" fill="#FFFFFF" mask="url(#mask-13)"></path>
                </g>
                <path d="M140.675874,110.972065 L100.780728,110.972065 C98.1613502,110.972065 96.5234263,113.812433 97.8363653,116.080828 L117.894433,150.828213 C118.505405,151.881164 119.629852,152.537633 120.845296,152.537633 L160.928933,152.537633 C163.56131,152.537633 165.192734,149.684266 163.873296,147.409372 L143.613737,112.661987 C143.002766,111.615536 141.891318,110.972065 140.675874,110.972065" id="Fill-11" fill="#FFFFFF"></path>
                <g id="Group-15" transform="translate(0.000000, 209.345182)">
                    <mask id="mask-15" fill="white">
                        <use xlink:href="#path-14"></use>
                    </mask>
                    <g id="Clip-14"></g>
                    <path d="" id="Fill-13" fill="#FFFFFF" mask="url(#mask-15)"></path>
                </g>
                <path d="M143.615037,102.469811 L163.874596,67.7224258 C165.194034,65.4540312 163.556111,62.6006639 160.930233,62.6006639 L120.846596,62.6006639 C119.631152,62.6006639 118.506704,63.2506337 117.895733,64.3035847 L97.8376652,99.0509696 C96.5247262,101.319364 98.1626501,104.159732 100.782028,104.159732 L140.677174,104.159732 C141.886118,104.159732 143.004066,103.516262 143.615037,102.469811" id="Fill-16" fill="#FFFFFF"></path>
                <g id="Group-20" transform="translate(88.373414, 0.043672)">
                    <mask id="mask-17" fill="white">
                        <use xlink:href="#path-16"></use>
                    </mask>
                    <g id="Clip-19"></g>
                    <path d="M27.1291302,41.005944 L85.2754275,41.005944 C91.0536589,41.005944 96.3834112,44.0868008 99.2757767,49.0850685 L128.342426,99.4447277 C129.089891,100.725168 129.629366,102.077105 129.986849,103.468041 L175.198748,103.468041 C174.698271,100.185693 173.625821,96.9618431 171.903401,93.9914811 L125.775045,14.0841953 C120.945769,5.71258447 112.008685,0.55182435 102.337134,0.55182435 L10.0674233,0.55182435 C6.64208248,0.55182435 3.31423716,1.23429263 0.213881269,2.44323644 L22.8198305,41.5974165 C24.2107659,41.2139343 25.6536988,41.005944 27.1291302,41.005944" id="Fill-18" fill="#FFFFFF" mask="url(#mask-17)"></path>
                </g>
                <path d="M218.361563,111.616186 C217.99758,113.007121 217.458105,114.365558 216.71714,115.645998 L187.643991,166.005657 C186.903025,167.279598 185.999567,168.430045 184.979115,169.437498 L207.585064,208.591678 C210.178443,206.518274 212.433839,203.976893 214.149759,201.006531 L260.278115,121.092745 C262.000535,118.122383 263.072985,114.905033 263.573462,111.616186 L218.361563,111.616186 Z" id="Fill-21" fill="#FFFFFF"></path>
                <g id="Group-25" transform="translate(25.343202, 111.194125)">
                    <mask id="mask-19" fill="white">
                        <use xlink:href="#path-18"></use>
                    </mask>
                    <g id="Clip-24"></g>
                    <path d="M148.307589,62.8867573 L90.1612916,62.8867573 C84.3895599,62.8867573 79.0598076,59.8059005 76.1674421,54.8076329 L47.0942934,4.44797366 C46.3533279,3.16753317 45.8073532,1.81559601 45.4498698,0.424660665 L0.244471057,0.424660665 C0.738448097,3.71350779 1.81739795,6.93085825 3.53331819,9.90122018 L49.6681738,89.8150057 C54.4974493,98.1801169 63.4280342,103.340877 73.0995847,103.340877 L165.369296,103.340877 C168.801136,103.340877 172.128982,102.664908 175.222838,101.449465 L152.616889,62.2952848 C151.232453,62.678767 149.78952,62.8867573 148.307589,62.8867573" id="Fill-23" fill="#FFFFFF" mask="url(#mask-19)"></path>
                </g>
                <path d="M70.7917723,103.514312 C71.1557554,102.123377 71.70173,100.76494 72.4361959,99.4844995 L101.515844,49.1313399 C102.25031,47.8508995 103.153768,46.7004529 104.18072,45.6929998 L81.5747711,6.5453194 C78.974892,8.61222332 76.7259965,11.1601049 75.0100763,14.1304668 L28.8752207,94.0377526 C27.1593004,97.0081146 26.0803506,100.231965 25.5863735,103.514312 L70.7917723,103.514312 Z" id="Fill-26" fill="#FFFFFF"></path>
                <mask id="mask-21" fill="white">
                    <use xlink:href="#path-20"></use>
                </mask>
                <g id="Clip-29"></g>
                <polygon id="Fill-28" fill="#FFFFFF" mask="url(#mask-21)" points="21.6956544 108.809616 85.6331825 108.809616 85.6331825 106.326731 21.6956544 106.326731"></polygon>
                <polygon id="Fill-30" fill="#FFFFFF" mask="url(#mask-21)" points="264.387874 108.809616 316.580448 108.809616 316.580448 106.326731 264.387874 106.326731"></polygon>
                <polygon id="Fill-31" fill="#FFFFFF" mask="url(#mask-21)" points="250.888001 108.809616 261.690499 108.809616 261.690499 106.326731 250.888001 106.326731"></polygon>
                <polygon id="Fill-32" fill="#FFFFFF" mask="url(#mask-21)" points="227.086108 108.809616 232.487356 108.809616 232.487356 106.326731 227.086108 106.326731"></polygon>
                <polygon id="Fill-33" fill="#FFFFFF" mask="url(#mask-21)" points="10.0156973 108.809616 20.8181952 108.809616 20.8181952 106.326731 10.0156973 106.326731"></polygon>
                <polygon id="Fill-34" fill="#FFFFFF" mask="url(#mask-21)" points="1.91057402 108.809616 7.31182296 108.809616 7.31182296 106.326731 1.91057402 106.326731"></polygon>
            </g>
        </g>
    </g>
</svg>