<?xml version="1.0" encoding="UTF-8"?>
<svg width="18px" height="19px" viewBox="0 0 18 19" version="1.1" xmlns="http://www.w3.org/2000/svg" xmlns:xlink="http://www.w3.org/1999/xlink">
    <title>AD49C12D-3D69-4EFE-93FE-5C631294A81F</title>
    <g id="final" stroke="none" stroke-width="1" fill="none" fill-rule="evenodd">
        <g id="Landing-page-2" transform="translate(-203.000000, -421.000000)" fill="#899BFF">
            <g id="Group-8" transform="translate(88.000000, 208.200000)">
                <g id="Group-3-Copy" transform="translate(27.500000, 202.000000)">
                    <g id="Group-4" transform="translate(87.500000, 10.000000)">
                        <path d="M7.09,13.59 L8.5,15 L13.5,10 L8.5,5 L7.09,6.41 L9.67,9 L0,9 L0,11 L9.67,11 L7.09,13.59 L7.09,13.59 Z M16,1 L2,1 C0.89,1 0,1.9 0,3 L0,7 L2,7 L2,3 L16,3 L16,17 L2,17 L2,13 L0,13 L0,17 C0,18.1 0.89,19 2,19 L16,19 C17.1,19 18,18.1 18,17 L18,3 C18,1.9 17.1,1 16,1 L16,1 Z" id="Shape"></path>
                    </g>
                </g>
            </g>
        </g>
    </g>
</svg>