<?xml version="1.0" encoding="UTF-8"?>
<svg width="20px" height="24px" viewBox="0 0 20 24" version="1.1" xmlns="http://www.w3.org/2000/svg" xmlns:xlink="http://www.w3.org/1999/xlink">
    <title>5C33BD07-1914-46BE-BC2E-AF68DBEDCA26</title>
    <g id="final" stroke="none" stroke-width="1" fill="none" fill-rule="evenodd">
        <g id="hover" transform="translate(-780.000000, -370.000000)" fill="#FFFFFF">
            <path d="M790,386.66242 C793.265223,386.66242 799.783439,388.301146 799.783439,391.55414 L799.783439,391.55414 L799.783439,394 L780.216561,394 L780.216561,391.55414 C780.216561,388.301146 786.734777,386.66242 790,386.66242 Z M790,370 L798.407643,374.585987 L798.407643,380.700637 L796.878981,380.700637 L796.878981,375.419108 L794.22975,376.865117 C794.454384,377.250726 794.627795,377.669885 794.740675,378.113286 L795.350318,377.780892 L795.350318,380.838217 L794.467582,381.321027 C793.704196,383.027927 791.991547,384.216561 790,384.216561 C788.008453,384.216561 786.295804,383.027927 785.532418,381.321027 L784.649682,380.838217 L784.649682,377.780892 L785.259325,378.113286 C785.372205,377.669885 785.545616,377.250726 785.77025,376.865117 L781.592357,374.585987 L790,370 Z" id="Combined-Shape"></path>
        </g>
    </g>
</svg>