<?xml version="1.0" encoding="UTF-8"?>
<svg width="20px" height="24px" viewBox="0 0 20 24" version="1.1" xmlns="http://www.w3.org/2000/svg" xmlns:xlink="http://www.w3.org/1999/xlink">
    <title>5C33BD07-1914-46BE-BC2E-AF68DBEDCA26</title>
    <g id="final" stroke="none" stroke-width="1" fill="none" fill-rule="evenodd">
        <g id="hover" transform="translate(-780.000000, -171.000000)" fill="#FFFFFF">
            <g id="Group-9" transform="translate(732.000000, 84.000000)">
                <path d="M58,103.66242 C61.2652229,103.66242 67.7834395,105.301146 67.7834395,108.55414 L67.7834395,108.55414 L67.7834395,111 L48.2165605,111 L48.2165605,108.55414 C48.2165605,105.301146 54.7347771,103.66242 58,103.66242 Z M58,87 L66.4076433,91.5859873 L66.4076433,97.7006369 L64.8789809,97.7006369 L64.8789809,92.4191083 L62.2297498,93.8651172 C62.4543841,94.2507258 62.627795,94.6698845 62.7406752,95.1132861 L63.3503185,94.7808917 L63.3503185,97.8382166 L62.4675822,98.3210271 C61.704196,100.027927 59.9915466,101.216561 58,101.216561 C56.0084534,101.216561 54.295804,100.027927 53.5324178,98.3210271 L52.6496815,97.8382166 L52.6496815,94.7808917 L53.2593248,95.1132861 C53.372205,94.6698845 53.5456159,94.2507258 53.7702502,93.8651172 L49.5923567,91.5859873 L58,87 Z" id="Combined-Shape"></path>
            </g>
        </g>
    </g>
</svg>