<?xml version="1.0" encoding="UTF-8"?>
<svg width="26px" height="32px" viewBox="0 0 26 32" version="1.1" xmlns="http://www.w3.org/2000/svg" xmlns:xlink="http://www.w3.org/1999/xlink">
    <title>DDE39B52-98B3-4F4B-A321-B6A689709BA2</title>
    <g id="final" stroke="none" stroke-width="1" fill="none" fill-rule="evenodd">
        <g id="hover" transform="translate(-777.000000, -765.000000)" fill="#FFFFFF">
            <g id="Group-11" transform="translate(777.000000, 765.500000)">
                <path d="M4.494,30.276 C5.026,30.276 5.50666667,30.234 5.936,30.15 C6.36533333,30.066 6.79933333,29.9353333 7.238,29.758 L7.238,29.758 L7.238,27.98 C6.762,28.148 6.31866667,28.2786667 5.908,28.372 C5.49733333,28.4653333 5.09133333,28.512 4.69,28.512 C3.81266667,28.512 3.17566667,28.2203333 2.779,27.637 C2.38233333,27.0536667 2.184,26.23 2.184,25.166 C2.184,24.1113333 2.39866667,23.2806667 2.828,22.674 C3.25733333,22.0673333 3.878,21.764 4.69,21.764 C5.054,21.764 5.425,21.8293333 5.803,21.96 C6.181,22.0906667 6.55666667,22.2446667 6.93,22.422 L6.93,22.422 L7.616,20.7 C7.15866667,20.4853333 6.68033333,20.315 6.181,20.189 C5.68166667,20.063 5.18466667,20 4.69,20 C3.682,20 2.83033333,20.2193333 2.135,20.658 C1.43966667,21.0966667 0.91,21.7033333 0.546,22.478 C0.182,23.2526667 1.70530257e-13,24.144 1.70530257e-13,25.152 C1.70530257e-13,26.1786667 0.158666667,27.077 0.476,27.847 C0.793333333,28.617 1.28333333,29.2143333 1.946,29.639 C2.60866667,30.0636667 3.458,30.276 4.494,30.276 Z M11.48,30.136 L11.48,26.3 L12.614,26.3 L14.994,30.136 L17.346,30.136 L14.406,25.782 C14.7326667,25.6326667 15.0383333,25.439 15.323,25.201 C15.6076667,24.963 15.8363333,24.6736667 16.009,24.333 C16.1816667,23.9923333 16.268,23.5933333 16.268,23.136 C16.268,22.128 15.9436667,21.3766667 15.295,20.882 C14.6463333,20.3873333 13.6406667,20.14 12.278,20.14 L12.278,20.14 L9.366,20.14 L9.366,30.136 L11.48,30.136 Z M12.166,24.578 L11.48,24.578 L11.48,21.876 L12.124,21.876 C12.8053333,21.876 13.3093333,21.9763333 13.636,22.177 C13.9626667,22.3776667 14.126,22.716 14.126,23.192 C14.126,23.6493333 13.9743333,23.9946667 13.671,24.228 C13.3676667,24.4613333 12.866,24.578 12.166,24.578 L12.166,24.578 Z M22.652,30.276 C23.184,30.276 23.6646667,30.234 24.094,30.15 C24.5233333,30.066 24.9573333,29.9353333 25.396,29.758 L25.396,29.758 L25.396,27.98 C24.92,28.148 24.4766667,28.2786667 24.066,28.372 C23.6553333,28.4653333 23.2493333,28.512 22.848,28.512 C21.9706667,28.512 21.3336667,28.2203333 20.937,27.637 C20.5403333,27.0536667 20.342,26.23 20.342,25.166 C20.342,24.1113333 20.5566667,23.2806667 20.986,22.674 C21.4153333,22.0673333 22.036,21.764 22.848,21.764 C23.212,21.764 23.583,21.8293333 23.961,21.96 C24.339,22.0906667 24.7146667,22.2446667 25.088,22.422 L25.088,22.422 L25.774,20.7 C25.3166667,20.4853333 24.8383333,20.315 24.339,20.189 C23.8396667,20.063 23.3426667,20 22.848,20 C21.84,20 20.9883333,20.2193333 20.293,20.658 C19.5976667,21.0966667 19.068,21.7033333 18.704,22.478 C18.34,23.2526667 18.158,24.144 18.158,25.152 C18.158,26.1786667 18.3166667,27.077 18.634,27.847 C18.9513333,28.617 19.4413333,29.2143333 20.104,29.639 C20.7666667,30.0636667 21.616,30.276 22.652,30.276 Z" id="CRC" fill-rule="nonzero"></path>
                <path d="M24.188,2 C24.188,3.1 23.288,4 22.188,4 C22.008,4 21.838,3.98 21.678,3.93 L18.118,7.48 C18.168,7.64 18.188,7.82 18.188,8 C18.188,9.1 17.288,10 16.188,10 C15.088,10 14.188,9.1 14.188,8 C14.188,7.82 14.208,7.64 14.258,7.48 L11.708,4.93 C11.548,4.98 11.368,5 11.188,5 C11.008,5 10.828,4.98 10.668,4.93 L6.118,9.49 C6.168,9.65 6.188,9.82 6.188,10 C6.188,11.1 5.288,12 4.188,12 C3.088,12 2.188,11.1 2.188,10 C2.188,8.9 3.088,8 4.188,8 C4.368,8 4.538,8.02 4.698,8.07 L9.258,3.52 C9.208,3.36 9.188,3.18 9.188,3 C9.188,1.9 10.088,1 11.188,1 C12.288,1 13.188,1.9 13.188,3 C13.188,3.18 13.168,3.36 13.118,3.52 L15.668,6.07 C15.828,6.02 16.008,6 16.188,6 C16.368,6 16.548,6.02 16.708,6.07 L20.258,2.51 C20.208,2.35 20.188,2.18 20.188,2 C20.188,0.9 21.088,0 22.188,0 C23.288,0 24.188,0.9 24.188,2 L24.188,2 Z" id="Shape"></path>
            </g>
        </g>
    </g>
</svg>