<?xml version="1.0" encoding="UTF-8"?>
<svg width="40px" height="32px" viewBox="0 0 40 32" version="1.1" xmlns="http://www.w3.org/2000/svg" xmlns:xlink="http://www.w3.org/1999/xlink">
    <title>DF736BCA-C8DE-4879-81FC-FD4B85183119</title>
    <g id="final" stroke="none" stroke-width="1" fill="none" fill-rule="evenodd">
        <g id="hover" transform="translate(-452.000000, -764.000000)" fill="#FFFFFF">
            <g id="Group-12" transform="translate(452.000000, 764.500000)">
                <path d="M4.06,30.276 C4.984,30.276 5.754,30.115 6.37,29.793 C6.986,29.471 7.44566667,29.0323333 7.749,28.477 C8.05233333,27.9216667 8.204,27.2986667 8.204,26.608 L8.204,26.608 L8.204,20.14 L6.09,20.14 L6.09,26.244 C6.09,27.0186667 5.93366667,27.588 5.621,27.952 C5.30833333,28.316 4.80666667,28.498 4.116,28.498 C3.45333333,28.498 2.954,28.3323333 2.618,28.001 C2.282,27.6696667 2.114,27.0886667 2.114,26.258 L2.114,26.258 L2.114,20.14 L-5.68434189e-14,20.14 L-5.68434189e-14,26.58 C-5.68434189e-14,27.6906667 0.345333333,28.5843333 1.036,29.261 C1.72666667,29.9376667 2.73466667,30.276 4.06,30.276 Z M13.482,30.136 C15.1993333,30.136 16.5386667,29.709 17.5,28.855 C18.4613333,28.001 18.942,26.7293333 18.942,25.04 C18.942,23.976 18.7296667,23.08 18.305,22.352 C17.8803333,21.624 17.283,21.0733333 16.513,20.7 C15.743,20.3266667 14.8353333,20.14 13.79,20.14 L13.79,20.14 L10.654,20.14 L10.654,30.136 L13.482,30.136 Z M13.678,28.386 L12.768,28.386 L12.768,21.876 L13.902,21.876 C14.826,21.876 15.5306667,22.1373333 16.016,22.66 C16.5013333,23.1826667 16.744,23.9946667 16.744,25.096 C16.744,27.2893333 15.722,28.386 13.678,28.386 L13.678,28.386 Z M24.752,30.136 L24.752,28.932 L23.534,28.372 L23.534,21.904 L24.752,21.344 L24.752,20.14 L20.202,20.14 L20.202,21.344 L21.42,21.904 L21.42,28.372 L20.202,28.932 L20.202,30.136 L24.752,30.136 Z M28.672,30.276 C29.848,30.276 30.7556667,30.0123333 31.395,29.485 C32.0343333,28.9576667 32.354,28.2506667 32.354,27.364 C32.354,26.8413333 32.256,26.4026667 32.06,26.048 C31.864,25.6933333 31.5863333,25.3853333 31.227,25.124 C30.8676667,24.8626667 30.4313333,24.6106667 29.918,24.368 C29.2926667,24.0693333 28.8213333,23.8173333 28.504,23.612 C28.1866667,23.4066667 28.028,23.1266667 28.028,22.772 C28.028,22.4733333 28.1353333,22.2306667 28.35,22.044 C28.5646667,21.8573333 28.8726667,21.764 29.274,21.764 C29.6566667,21.764 30.03,21.8153333 30.394,21.918 C30.758,22.0206667 31.1686667,22.1653333 31.626,22.352 L31.626,22.352 L32.312,20.7 C31.7893333,20.476 31.2946667,20.3033333 30.828,20.182 C30.3613333,20.0606667 29.8666667,20 29.344,20 C28.2986667,20 27.4726667,20.2496667 26.866,20.749 C26.2593333,21.2483333 25.956,21.946 25.956,22.842 C25.956,23.2993333 26.0353333,23.6913333 26.194,24.018 C26.3526667,24.3446667 26.5556667,24.6223333 26.803,24.851 C27.0503333,25.0796667 27.3093333,25.271 27.58,25.425 C27.8506667,25.579 28.1026667,25.712 28.336,25.824 C28.7093333,26.0013333 29.0406667,26.167 29.33,26.321 C29.6193333,26.475 29.8503333,26.6406667 30.023,26.818 C30.1956667,26.9953333 30.282,27.21 30.282,27.462 C30.282,27.77 30.1723333,28.0243333 29.953,28.225 C29.7336667,28.4256667 29.3626667,28.526 28.84,28.526 C28.336,28.526 27.8296667,28.4396667 27.321,28.267 C26.8123333,28.0943333 26.32,27.9053333 25.844,27.7 L25.844,27.7 L25.844,29.674 C26.6746667,30.0753333 27.6173333,30.276 28.672,30.276 Z M39.928,30.136 L39.928,28.386 L36.288,28.386 L36.288,25.81 L39.676,25.81 L39.676,24.074 L36.288,24.074 L36.288,21.876 L39.928,21.876 L39.928,20.14 L34.174,20.14 L34.174,30.136 L39.928,30.136 Z" id="UDISE" fill-rule="nonzero"></path>
                <path d="M30.81,2 C30.81,3.1 29.91,4 28.81,4 C28.63,4 28.46,3.98 28.3,3.93 L24.74,7.48 C24.79,7.64 24.81,7.82 24.81,8 C24.81,9.1 23.91,10 22.81,10 C21.71,10 20.81,9.1 20.81,8 C20.81,7.82 20.83,7.64 20.88,7.48 L18.33,4.93 C18.17,4.98 17.99,5 17.81,5 C17.63,5 17.45,4.98 17.29,4.93 L12.74,9.49 C12.79,9.65 12.81,9.82 12.81,10 C12.81,11.1 11.91,12 10.81,12 C9.71,12 8.81,11.1 8.81,10 C8.81,8.9 9.71,8 10.81,8 C10.99,8 11.16,8.02 11.32,8.07 L15.88,3.52 C15.83,3.36 15.81,3.18 15.81,3 C15.81,1.9 16.71,1 17.81,1 C18.91,1 19.81,1.9 19.81,3 C19.81,3.18 19.79,3.36 19.74,3.52 L22.29,6.07 C22.45,6.02 22.63,6 22.81,6 C22.99,6 23.17,6.02 23.33,6.07 L26.88,2.51 C26.83,2.35 26.81,2.18 26.81,2 C26.81,0.9 27.71,0 28.81,0 C29.91,0 30.81,0.9 30.81,2 L30.81,2 Z" id="Shape"></path>
            </g>
        </g>
    </g>
</svg>