<?xml version="1.0" encoding="UTF-8"?>
<svg width="34px" height="26px" viewBox="0 0 34 26" version="1.1" xmlns="http://www.w3.org/2000/svg" xmlns:xlink="http://www.w3.org/1999/xlink">
    <title>C790EC8A-E284-43A1-9F8D-F93A9451787D</title>
    <g id="final" stroke="none" stroke-width="1" fill="none" fill-rule="evenodd">
        <g id="hover" transform="translate(-773.000000, -565.000000)" fill="#FFFFFF">
            <g id="Group-10" transform="translate(773.500000, 565.231819)">
                <path d="M2,10.4 L20,10.4 L20,8.4 L2,8.4 C0.9,8.4 0,9.3 0,10.4 L0,22.4 C0,23.5 0.9,24.4 2,24.4 L6,24.4 L6,22.4 L2,22.4 L2,10.4 L2,10.4 Z M12,16.4 L8,16.4 L8,18.18 C7.39,18.73 7,19.51 7,20.4 C7,21.29 7.39,22.07 8,22.62 L8,24.4 L12,24.4 L12,22.62 C12.61,22.07 13,21.28 13,20.4 C13,19.52 12.61,18.73 12,18.18 L12,16.4 L12,16.4 Z M10,21.9 C9.17,21.9 8.5,21.23 8.5,20.4 C8.5,19.57 9.17,18.9 10,18.9 C10.83,18.9 11.5,19.57 11.5,20.4 C11.5,21.23 10.83,21.9 10,21.9 L10,21.9 Z M21,12.4 L15,12.4 C14.5,12.4 14,12.9 14,13.4 L14,23.4 C14,23.9 14.5,24.4 15,24.4 L21,24.4 C21.5,24.4 22,23.9 22,23.4 L22,13.4 C22,12.9 21.5,12.4 21,12.4 L21,12.4 Z M20,22.4 L16,22.4 L16,14.4 L20,14.4 L20,22.4 L20,22.4 Z" id="Shape"></path>
                <path d="M21.5,4 L21.5,6 C24.26,6 26.5,8.24 26.5,11 L28.5,11 C28.5,7.13 25.37,4 21.5,4 L21.5,4 Z" id="Path"></path>
                <path d="M21.5,8 L21.5,11 L24.5,11 C24.5,9.34 23.16,8 21.5,8 L21.5,8 Z" id="Path"></path>
                <path d="M21.5,0 L21.5,2 C26.47,2 30.5,6.03 30.5,11 L32.5,11 C32.5,4.92 27.58,0 21.5,0 L21.5,0 Z" id="Path"></path>
            </g>
        </g>
    </g>
</svg>