<?xml version="1.0" encoding="UTF-8"?>
<svg width="24px" height="24px" viewBox="0 0 24 24" version="1.1" xmlns="http://www.w3.org/2000/svg" xmlns:xlink="http://www.w3.org/1999/xlink">
    <title>5612650A-9F57-43A5-8045-1149B239C1C3</title>
    <g id="final" stroke="none" stroke-width="1" fill="none" fill-rule="evenodd">
        <g id="hover" transform="translate(-140.000000, -370.000000)">
            <g id="Group-7" transform="translate(106.000000, 336.000000)">
                <g id="Icon-24px" transform="translate(34.000000, 34.000000)">
                    <polygon id="Shape" points="0 0 24 0 24 24 0 24"></polygon>
                    <path d="M19,4 L14.82,4 C14.4,2.84 13.3,2 12,2 C10.7,2 9.6,2.84 9.18,4 L5,4 C3.9,4 3,4.9 3,6 L3,20 C3,21.1 3.9,22 5,22 L19,22 C20.1,22 21,21.1 21,20 L21,6 C21,4.9 20.1,4 19,4 L19,4 Z M12,4 C12.55,4 13,4.45 13,5 C13,5.55 12.55,6 12,6 C11.45,6 11,5.55 11,5 C11,4.45 11.45,4 12,4 L12,4 Z M14,18 L7,18 L7,16 L14,16 L14,18 L14,18 Z M17,14 L7,14 L7,12 L17,12 L17,14 L17,14 Z M17,10 L7,10 L7,8 L17,8 L17,10 L17,10 Z" id="Shape" fill="#FFFFFF"></path>
                </g>
            </g>
        </g>
    </g>
</svg>