<?xml version="1.0" encoding="UTF-8"?>
<svg width="24px" height="24px" viewBox="0 0 24 24" version="1.1" xmlns="http://www.w3.org/2000/svg" xmlns:xlink="http://www.w3.org/1999/xlink">
    <title>8306EBDE-B200-47BC-9C39-DBA8A829B1B7</title>
    <g id="final" stroke="none" stroke-width="1" fill="none" fill-rule="evenodd">
        <g id="hover" transform="translate(-1100.000000, -281.000000)">
            <g id="Icon-24px" transform="translate(1100.000000, 281.000000)">
                <polygon id="Shape" points="0 0 24 0 24 24 0 24"></polygon>
                <path d="M19,3 L5,3 C3.9,3 3,3.9 3,5 L3,19 C3,20.1 3.9,21 5,21 L19,21 C20.1,21 21,20.1 21,19 L21,5 C21,3.9 20.1,3 19,3 L19,3 Z M9,17 L7,17 L7,10 L9,10 L9,17 L9,17 Z M13,17 L11,17 L11,7 L13,7 L13,17 L13,17 Z M17,17 L15,17 L15,13 L17,13 L17,17 L17,17 Z" id="Shape" fill="#FFFFFF"></path>
            </g>
        </g>
    </g>
</svg>