<?xml version="1.0" encoding="UTF-8"?>
<svg width="12px" height="24px" viewBox="0 0 12 24" version="1.1" xmlns="http://www.w3.org/2000/svg" xmlns:xlink="http://www.w3.org/1999/xlink">
    <title>1FBEAF40-47DA-4599-9D52-BAF0A0F1F053</title>
    <g id="final" stroke="none" stroke-width="1" fill="none" fill-rule="evenodd">
        <g id="hover" transform="translate(-146.000000, -569.000000)" fill="#FFFFFF" fill-rule="nonzero">
            <g id="student-4" transform="translate(146.000000, 569.000000)">
                <path d="M11.209875,10.94475 C10.7619844,11.239125 10.198875,11.3330156 9.65676563,11.161875 L8.19285937,10.6997344 L8.19285937,11.895375 C8.61660938,12.0664219 9.11109375,12.1115156 9.68240625,12.0322031 C10.0390312,11.9826094 10.3686094,12.23175 10.4181562,12.5886094 C10.46775,12.9454219 10.2186094,13.2748125 9.86179687,13.3243594 C9.30646875,13.4014219 8.73984375,13.396125 8.19290625,13.2635156 L8.19290625,14.8899375 C9.34982812,15.1918125 10.7043281,14.8778438 11.3377969,13.5149531 C11.8112813,12.4960781 11.6098125,11.6212031 11.209875,10.94475 Z" id="Path"></path>
                <path d="M6.89573437,10.2902812 C6.93070312,10.5608906 6.99154687,10.7887031 7.08628125,10.9367344 C7.18879687,11.0968125 7.29220312,11.22825 7.40104687,11.3449687 L7.40104687,10.4497969 C7.359375,10.4366719 7.4124375,10.4534062 6.89573437,10.2902812 Z" id="Path"></path>
                <path d="M7.38042188,12.9567656 C6.83109375,12.6661875 6.36271875,12.2257969 5.9878125,11.6402812 C5.6788125,11.1577031 5.56973438,10.4672812 5.5524375,9.79889062 C4.87626562,9.3643125 4.5455625,8.516625 4.79910937,7.71328125 C4.99303125,7.09917187 5.48146875,6.66009375 6.05953125,6.50151562 L6.572625,4.58029688 C4.7071875,4.58029688 4.61592188,4.58029688 2.3030625,4.58029688 C1.06565625,4.58029688 0.053859375,5.58703125 0.04753125,6.82448438 L0.0123628924,13.826625 C0.00975,14.3530313 0.434296875,14.7818437 0.960703125,14.7845156 C0.96234375,14.7845156 0.963984375,14.7845156 0.965625,14.7845156 C1.48978125,14.7845156 1.91601562,14.3609063 1.91864062,13.8361875 L1.95379687,6.83404688 C1.95384375,6.7295625 2.0385,6.645 2.14289062,6.645 C2.24728125,6.645 2.3319375,6.72970313 2.3319375,6.83409375 L2.33235937,22.8561562 C2.33235937,23.4877969 2.84442187,23.9999531 3.47610937,23.9999531 C4.10779687,23.9999531 4.61985937,23.4877969 4.61985937,22.8561562 L4.61985937,13.7142656 L5.11364062,13.7142656 L5.11364062,22.85625 C5.11364062,23.4878906 5.62570312,23.9999531 6.25739062,23.9999531 C6.88907812,23.9999531 7.40114062,23.4878906 7.40114062,22.85625 C7.40114062,22.4783906 7.40114062,13.4900625 7.40114062,12.9676406 C7.39425,12.9640312 7.3873125,12.960375 7.38042188,12.9567656 Z" id="Path"></path>
                <circle id="Oval" cx="4.86651562" cy="1.97535938" r="1.97535938"></circle>
                <path d="M11.0682656,9.01289063 L10.3815938,7.56032812 L9.65953125,6.0328125 C9.321,5.31665625 8.66428125,4.80623437 7.9070625,4.6393125 L7.41323437,6.48834375 C7.64085937,6.50554687 7.84101562,6.64626562 7.936125,6.84745312 L8.41204687,7.85423437 C6.85917187,7.3640625 7.25442187,7.48879687 6.82757812,7.35407812 C6.31692187,7.19301562 5.78676562,7.48504688 5.63175,7.9760625 C5.47603125,8.46923438 5.74654687,9.0118125 6.25373437,9.17189062 C7.01742187,9.41296875 9.15745312,10.0884844 9.91964062,10.3290469 C10.2816562,10.4433281 10.6760625,10.3317187 10.9246875,10.0468125 C11.1737813,9.76139062 11.2301719,9.35545313 11.0682656,9.01289063 Z" id="Path"></path>
            </g>
        </g>
    </g>
</svg>